<svg width="40" height="40" viewBox="0 0 40 40" fill="none" xmlns="http://www.w3.org/2000/svg">
<path d="M30.7941 9.33328C30.4398 6.8825 29.2626 4.62883 27.4318 2.92375C25.4074 1.03836 22.7681 0 20.0002 0C17.2324 0 14.5931 1.03836 12.5686 2.92375C10.7378 4.62883 9.56071 6.8825 9.20634 9.33328C5.26298 11.0552 2.66235 14.9832 2.66235 19.3315C2.66235 25.3455 7.55509 30.2381 13.569 30.2381C15.4225 30.2381 17.2288 29.7669 18.8282 28.886V40H21.172V28.886C22.7713 29.7669 24.5777 30.2381 26.4312 30.2381C32.4452 30.2381 37.3378 25.3454 37.3378 19.3315C37.3381 14.9832 34.7374 11.0551 30.7941 9.33328ZM26.4313 27.8944C24.5193 27.8944 22.6712 27.256 21.1721 26.088V18.92L26.4283 16.1563L25.3375 14.0819L21.1721 16.272V11.6586H18.8284V21.4668L14.663 19.2766L13.5722 21.3511L18.8284 24.1148V26.088C17.3293 27.256 15.4812 27.8944 13.5692 27.8944C8.84751 27.8944 5.00626 24.053 5.00626 19.3315C5.00626 15.7212 7.28954 12.4799 10.6879 11.2658L11.4048 11.0097L11.4621 10.2506C11.6245 8.10461 12.5847 6.11164 14.166 4.63891C15.7552 3.15883 17.8272 2.34375 20.0002 2.34375C22.1733 2.34375 24.2453 3.15883 25.8345 4.63883C27.4159 6.11156 28.3761 8.10445 28.5384 10.2505L28.5958 11.0096L29.3127 11.2657C32.711 12.4798 34.9943 15.7212 34.9943 19.3314C34.9943 24.053 31.153 27.8944 26.4313 27.8944Z" fill="#6C9E5D"/>
</svg>
